<svg viewBox="0 0 48 48" xmlns="http://www.w3.org/2000/svg" xmlns:xlink="http://www.w3.org/1999/xlink"><linearGradient id="linear-gradient" gradientUnits="userSpaceOnUse" x1="36" x2="47" y1="32" y2="32"><stop offset="0" stop-color="#fe9661"/><stop offset="1" stop-color="#ffb369"/></linearGradient><linearGradient id="linear-gradient-2" x1="35" x2="44" xlink:href="#linear-gradient" y1="40.5" y2="40.5"/><linearGradient id="linear-gradient-3" x1="16" x2="16" xlink:href="#linear-gradient" y1="18" y2="9"/><linearGradient id="linear-gradient-4" gradientUnits="userSpaceOnUse" x1="26.51" x2="43.49" y1="23.49" y2="6.51"><stop offset="0" stop-color="#54a5ff"/><stop offset="1" stop-color="#8ad3fe"/></linearGradient><linearGradient id="linear-gradient-5" gradientUnits="userSpaceOnUse" x1="1" x2="39" y1="28" y2="28"><stop offset="0" stop-color="#d3e6f5"/><stop offset="1" stop-color="#f0f7fc"/></linearGradient><g id="Cloud_API" data-name="Cloud API"><path d="m43.28 31h-6.28a1 1 0 0 0 0 2h6.28a2 2 0 1 0 0-2z" fill="url(#linear-gradient)"/><path d="m43 41.28v-4.28a1 1 0 0 0 -1-1h-6a1 1 0 0 0 0 2h5v3.28a2 2 0 1 0 2 0z" fill="url(#linear-gradient-2)"/><path d="m19 10h-3.28a2 2 0 1 0 0 2h2.28v5a1 1 0 0 0 2 0v-6a1 1 0 0 0 -1-1z" fill="url(#linear-gradient-3)"/><path d="m47 17v-4a1 1 0 0 0 -1-1h-.76a1 1 0 0 1 -.92-.61c0-.14-.11-.28-.17-.42a1 1 0 0 1 .21-1.09l.54-.54a1 1 0 0 0 0-1.41l-2.83-2.83a1 1 0 0 0 -1.41 0l-.54.54a1 1 0 0 1 -1.12.21l-.42-.17a1 1 0 0 1 -.58-.92v-.76a1 1 0 0 0 -1-1h-4a1 1 0 0 0 -1 1v.76a1 1 0 0 1 -.61.92l-.39.17a1 1 0 0 1 -1.09-.21l-.54-.54a1 1 0 0 0 -1.41 0l-2.86 2.83a1 1 0 0 0 0 1.41l.54.54a1 1 0 0 1 .21 1.12c-.06.14-.12.28-.17.42a1 1 0 0 1 -.92.61h-.76a1 1 0 0 0 -1 1v4a1 1 0 0 0 1 1h.76a1 1 0 0 1 .92.61c.05.14.11.28.17.42a1 1 0 0 1 -.21 1.09l-.54.54a1 1 0 0 0 0 1.41l2.83 2.83a1 1 0 0 0 1.41 0l.54-.54a1 1 0 0 1 1.12-.24l.42.17a1 1 0 0 1 .61.92v.76a1 1 0 0 0 1 1h4a1 1 0 0 0 1-1v-.76a1 1 0 0 1 .61-.92l.42-.17a1 1 0 0 1 1.09.21l.54.54a1 1 0 0 0 1.41 0l2.83-2.83a1 1 0 0 0 0-1.41l-.54-.54a1 1 0 0 1 -.24-1.12c.06-.14.12-.28.17-.42a1 1 0 0 1 .92-.61h.76a1 1 0 0 0 1-.97z" fill="url(#linear-gradient-4)"/><circle cx="35" cy="15" fill="#4795ea" r="5"/><path d="m39 32a9 9 0 0 1 -9 9h-20a9 9 0 0 1 -.59-18 11 11 0 0 1 21.18 0 9 9 0 0 1 8.41 9z" fill="url(#linear-gradient-5)"/><g fill="#b4cde1"><path d="m22 27h-2a1 1 0 0 0 -1 1v6a1 1 0 0 0 2 0v-1h1a3 3 0 0 0 0-6zm0 4h-1v-2h1a1 1 0 0 1 0 2z"/><path d="m14 27a3 3 0 0 0 -3 3v4a1 1 0 0 0 2 0v-1h2v1a1 1 0 0 0 2 0v-4a3 3 0 0 0 -3-3zm-1 4v-1a1 1 0 0 1 2 0v1z"/><path d="m28 35a1 1 0 0 1 -1-1v-6a1 1 0 0 1 2 0v6a1 1 0 0 1 -1 1z"/></g></g></svg>