<svg clip-rule="evenodd" fill-rule="evenodd" height="512" stroke-linejoin="round" stroke-miterlimit="2" viewBox="0 0 64 64" width="512" xmlns="http://www.w3.org/2000/svg"><g><path d="m13 31h-2.846c-3.397 0-6.154-2.738-6.154-6.111s2.757-6.111 6.154-6.111c.514 0 1.013.062 1.49.181-.169-.644-.259-1.319-.259-2.015 0-4.384 3.584-7.944 8-7.944 4.415 0 8 3.56 8 7.944 0 .297-.017.59-.049.879.601-.174 1.237-.267 1.895-.267 3.736 0 6.769 3.012 6.769 6.722s-3.033 6.722-6.769 6.722h-2.231" fill="#73c2ba"/><path d="m37 52h-2.846c-3.397 0-6.154-2.738-6.154-6.111s2.757-6.111 6.154-6.111c.514 0 1.013.062 1.49.181-.169-.644-.259-1.319-.259-2.015 0-4.384 3.584-7.944 8-7.944 4.415 0 8 3.56 8 7.944 0 .297-.017.59-.049.879.601-.174 1.237-.267 1.895-.267 3.736 0 6.769 3.012 6.769 6.722s-3.033 6.722-6.769 6.722h-2.231" fill="#73c2ba"/><path d="m13 23h14v16h-14z" fill="#fac440"/><path d="m37 44h14v16h-14z" fill="#fac440"/><path d="m13 23h14v8h-14z" fill="#99d6d1"/><path d="m37 44h14v8h-14z" fill="#99d6d1"/><g fill="#f6f7f6"><path d="m18 28c-.552 0-1-.448-1-1s.448-1 1-1h4c.552 0 1 .448 1 1s-.448 1-1 1z"/><path d="m42 49c-.552 0-1-.448-1-1s.448-1 1-1h4c.552 0 1 .448 1 1s-.448 1-1 1z"/><path d="m18 28c-.552 0-1-.448-1-1s.448-1 1-1h4c.552 0 1 .448 1 1s-.448 1-1 1z"/><path d="m42 49c-.552 0-1-.448-1-1s.448-1 1-1h4c.552 0 1 .448 1 1s-.448 1-1 1z"/><path d="m18 36c-.552 0-1-.448-1-1s.448-1 1-1h4c.552 0 1 .448 1 1s-.448 1-1 1z"/><path d="m42 57c-.552 0-1-.448-1-1s.448-1 1-1h4c.552 0 1 .448 1 1s-.448 1-1 1z"/><path d="m18 36c-.552 0-1-.448-1-1s.448-1 1-1h4c.552 0 1 .448 1 1s-.448 1-1 1z"/><path d="m42 57c-.552 0-1-.448-1-1s.448-1 1-1h4c.552 0 1 .448 1 1s-.448 1-1 1z"/></g><path d="m60 25.142-6.58 4.208-2.952-7.231 2.713.861c.282-1.818.166-3.632-.293-5.338-1.113-4.138-4.244-7.641-8.628-9.031-4.393-1.393-8.983-.326-12.278 2.428l-2.706-2.95c4.318-3.687 10.387-5.132 16.193-3.291 6.566 2.082 10.984 7.79 11.747 14.216.202 1.696.149 3.443-.187 5.186z" fill="#38334a"/></g></svg>