<svg id="Icons" height="512" viewBox="0 0 60 60" width="512" xmlns="http://www.w3.org/2000/svg"><path d="m31.076 58.726 5.364-2.92a37.656 37.656 0 0 0 19.56-33.106v-13.96a2.005 2.005 0 0 0 -1.927-2.019c-12.673-.347-20.539-4.045-23.127-5.477a1.958 1.958 0 0 0 -1.892 0c-2.588 1.432-10.454 5.13-23.127 5.477a2.005 2.005 0 0 0 -1.927 2.019v13.96a37.656 37.656 0 0 0 19.56 33.1l5.364 2.92a2.252 2.252 0 0 0 2.152.006z" fill="#c0daf0"/><path d="m25.472 52.293a33.613 33.613 0 0 1 -17.472-29.593v-11.125a1 1 0 0 1 .941-.993 55.9 55.9 0 0 0 20.624-5.1.972.972 0 0 1 .87 0 55.9 55.9 0 0 0 20.624 5.1 1 1 0 0 1 .941.993v11.125a33.613 33.613 0 0 1 -17.472 29.59l-3.572 1.944a2 2 0 0 1 -1.912 0z" fill="#153a77"/><g fill="#59d1d1"><path d="m27 20v33.13l-1.53-.84c-.16-.09-.32-.17-.47-.27v-32.02z"/><path d="m23 28.33v22.47c-.69-.45-1.36-.93-2-1.44v-21.03a3.018 3.018 0 0 0 -.6-1.8l-1.4-1.86a4.964 4.964 0 0 1 -1-3v-5.67h2v5.67a3.018 3.018 0 0 0 .6 1.8l1.4 1.86a4.964 4.964 0 0 1 1 3z"/><path d="m17 25v5h-2v-5a1.983 1.983 0 0 0 -.59-1.41l-2.24-2.24a4.02 4.02 0 0 1 -1.17-2.84v-8.1c.68-.07 1.35-.14 2-.23v8.33a2.047 2.047 0 0 0 .59 1.43l2.24 2.23a4 4 0 0 1 1.17 2.83z"/><path d="m49 10.41v8.1a3.979 3.979 0 0 1 -1.17 2.83l-2.24 2.25a1.983 1.983 0 0 0 -.59 1.41v5h-2v-5a4 4 0 0 1 1.17-2.83l2.24-2.24a2.006 2.006 0 0 0 .59-1.42v-8.33c.65.09 1.32.16 2 .23z"/><path d="m35 20v32.02c-.15.1-.31.18-.47.27l-1.53.84v-33.13z"/><path d="m42 16v5.67a4.964 4.964 0 0 1 -1 3l-1.4 1.86a3.018 3.018 0 0 0 -.6 1.8v21.03c-.64.51-1.31.99-2 1.44v-22.47a4.964 4.964 0 0 1 1-3l1.4-1.86a3.018 3.018 0 0 0 .6-1.8v-5.67z"/><path d="m31 5.74v6.26h-2v-6.26c.2-.08.38-.17.56-.26a1.042 1.042 0 0 1 .88 0c.18.09.36.18.56.26z"/><path d="m18 37v9.74c-.7-.69-1.37-1.41-2-2.16v-7.58a1 1 0 0 1 2 0z"/><path d="m44 37v7.58c-.63.75-1.3 1.47-2 2.16v-9.74a1 1 0 0 1 2 0z"/><path d="m31 36v18.22l-.04.02a2.04 2.04 0 0 1 -1.92 0l-.04-.02v-18.22a1 1 0 0 1 2 0z"/></g><circle cx="26" cy="20" fill="#6de8ea" r="2"/><circle cx="30" cy="12" fill="#6de8ea" r="2"/><circle cx="16" cy="30" fill="#6de8ea" r="2"/><circle cx="44" cy="30" fill="#6de8ea" r="2"/><circle cx="19" cy="16" fill="#6de8ea" r="2"/><circle cx="34" cy="20" fill="#6de8ea" r="2"/><circle cx="41" cy="16" fill="#6de8ea" r="2"/></svg>