<svg xmlns="http://www.w3.org/2000/svg" viewBox="0 0 64 64"><path d="m30 7-3.109-4.664a3 3 0 0 0 -2.497-1.336h-9.394a3 3 0 0 0 -3 3v3h-3a3 3 0 0 0 -3 3v12h52v-12a3 3 0 0 0 -3-3z" fill="#fad25a"/><path d="m10 11h44v11h-44z" fill="#eefbfa"/><path d="m55.061 51h-46.122a2 2 0 0 1 -1.967-1.637l-5.942-32.198a1.858 1.858 0 0 1 -.03-.333 1.832 1.832 0 0 1 1.832-1.832h58.336a1.832 1.832 0 0 1 1.832 1.832 1.858 1.858 0 0 1 -.03.333l-5.942 32.2a2 2 0 0 1 -1.967 1.635z" fill="#fce49c"/><path d="m9.972 49.363a2 2 0 0 0 1.967 1.637h43.122a2 2 0 0 0 1.967-1.637l5.351-29a2 2 0 0 0 -1.966-2.363h-53.826a2 2 0 0 0 -1.966 2.363z" fill="#fad25a"/><rect fill="#9696f5" height="40" rx="4" width="40" x="12" y="23"/><path d="m17.5 25.5a3 3 0 0 0 -3 3v34c0 .072.016.139.021.21a3.973 3.973 0 0 0 1.479.29h32a4 4 0 0 0 4-4v-32a3.977 3.977 0 0 0 -.29-1.479c-.071-.005-.138-.021-.21-.021z" fill="#8282fa"/><g fill="#eefbfa"><path d="m26.5 27a6 6 0 0 0 -6 6v4h3v-4a3 3 0 0 1 3-3h11a3 3 0 0 1 3 3v3h-4.5l6 9 6-9h-4.5v-3a6 6 0 0 0 -6-6z"/><path d="m37.5 59a6 6 0 0 0 6-6v-4h-3v4a3 3 0 0 1 -3 3h-11a3 3 0 0 1 -3-3v-3h4.5l-6-9-6 9h4.5v3a6 6 0 0 0 6 6z"/></g></svg>