<svg xmlns="http://www.w3.org/2000/svg" height="512" viewBox="0 0 512.03 512.03" width="512"><g fill="#fff"><path d="m123.88 209.976c-.146-4.139-3.632-7.392-7.76-7.23-4.14.146-7.377 3.62-7.23 7.76.337 9.567 1.638 19.196 3.866 28.618 7.752 32.852 25.931 61.217 52.576 82.031 25.932 20.233 58.137 31.376 90.684 31.376 11.339 0 22.724-1.333 33.833-3.96 78.993-18.647 128.095-98.09 109.456-177.094-7.766-32.865-25.949-61.229-52.584-82.028-25.922-20.234-58.128-31.378-90.685-31.378-11.327 0-22.71 1.333-33.833 3.961-38.185 9.011-70.616 32.424-91.318 65.928-9.239 14.959-15.681 31.142-19.147 48.099-.83 4.058 1.788 8.021 5.846 8.85 4.059.829 8.02-1.788 8.85-5.846 3.112-15.225 8.903-29.767 17.212-43.22 18.595-30.093 47.718-51.122 82.004-59.213 9.995-2.362 20.218-3.559 30.385-3.559 29.229 0 58.156 10.016 81.454 28.201 23.917 18.676 40.244 44.145 47.216 73.651 16.74 70.952-27.359 142.301-98.307 159.049-9.983 2.361-20.206 3.559-30.384 3.559-29.22 0-58.148-10.016-81.453-28.2-23.924-18.688-40.248-44.157-47.208-73.655-2.001-8.469-3.17-17.115-3.473-25.7z"/><path d="m318.932 107.838c-18.928-12.213-40.678-18.668-62.896-18.668-8.921 0-17.898 1.05-26.685 3.121-30.097 7.11-55.672 25.583-72.016 52.017-16.336 26.439-21.418 57.573-14.309 87.666 6.117 25.911 20.448 48.27 41.444 64.66 20.489 15.991 45.897 24.797 71.545 24.797 8.938 0 17.918-1.054 26.683-3.131 30.141-7.115 55.731-25.577 72.055-51.986 16.325-26.409 21.396-57.55 14.281-87.688-4.212-17.828-12.228-33.87-23.826-47.679-2.663-3.172-7.395-3.584-10.566-.92-3.172 2.664-3.584 7.395-.92 10.566 10.077 11.999 17.046 25.955 20.714 41.48 6.194 26.237 1.776 53.353-12.442 76.354s-36.5 39.079-62.749 45.275c-7.639 1.81-15.455 2.728-23.23 2.728-22.32 0-44.451-7.679-62.315-21.622-18.276-14.266-30.751-33.728-36.075-56.282-6.188-26.194-1.759-53.303 12.47-76.332 14.236-23.026 36.505-39.116 62.701-45.305 7.657-1.805 15.476-2.72 23.239-2.72 19.328 0 38.265 5.627 54.764 16.272 3.482 2.245 8.123 1.246 10.369-2.236 2.245-3.479 1.244-8.121-2.236-10.367z"/><path d="m447.329 205.499 13.728-51.03c.696-2.587-.041-5.35-1.934-7.246l-37.33-37.408-13.622-51.058c-.691-2.589-2.71-4.613-5.298-5.31l-51.029-13.727-37.33-37.408c-1.892-1.896-4.654-2.639-7.242-1.949l-51.059 13.622-51.03-13.728c-2.587-.695-5.35.041-7.246 1.934l-37.407 37.33-51.058 13.622c-2.589.691-4.613 2.71-5.31 5.298l-13.728 51.029-37.408 37.331c-1.896 1.893-2.639 4.653-1.949 7.242l13.622 51.058-13.728 51.03c-.696 2.587.041 5.35 1.934 7.246l37.33 37.407 13.622 51.058c.691 2.589 2.71 4.613 5.298 5.31l19.871 5.346-57.548 99.703c-3.298 8.152.869 12.319 8.438 10.993l44.976-12.058 12.058 44.985c1.792 6.687 9.897 8.065 13.739 1.808l56.832-98.432 34.278-9.152c4.002-1.068 6.38-5.179 5.311-9.181s-5.178-6.379-9.181-5.312l-32.855 8.773-35.691-35.765c-.93-.932-2.089-1.603-3.36-1.945l-48.788-13.125-13.023-48.815c-.339-1.272-1.008-2.433-1.938-3.365l-35.691-35.765 13.125-48.789c.342-1.271.343-2.61.004-3.882l-13.024-48.814 35.765-35.691c.932-.93 1.603-2.089 1.945-3.36l13.125-48.788 48.815-13.024c1.272-.339 2.433-1.008 3.365-1.938l35.765-35.691 48.789 13.125c1.271.341 2.609.343 3.881.004l48.817-13.024 35.691 35.765c.93.932 2.089 1.603 3.36 1.945l48.788 13.125 13.023 48.815c.339 1.272 1.008 2.433 1.938 3.365l35.691 35.765-13.125 48.789c-.342 1.271-.343 2.61-.004 3.881l13.024 48.817-35.765 35.691c-.932.93-1.603 2.089-1.945 3.36l-13.125 48.788-48.815 13.024c-1.272.339-2.433 1.008-3.365 1.938l-35.764 35.69-32.058-8.634c-3.996-1.074-8.115 1.292-9.192 5.292s1.292 8.115 5.292 9.192l34.658 9.334 56.587 98.014c3.217 5.573 11.998 5.923 13.74-1.81l12.049-44.983 44.975 12.057c8.069 1.826 11.735-3.341 8.437-10.994l-57.536-99.663 19.044-5.081c2.589-.691 4.613-2.71 5.31-5.298l13.728-51.029 37.408-37.331c1.896-1.893 2.639-4.653 1.949-7.242zm-281.974 170.561-22.535 39.03c-5.504 9.531 8.195 15.895 12.99 7.5l20.517-35.535 16.999 17.034-46.573 80.663-9.313-34.744c-1.598-4.304-4.66-6.071-9.186-5.302l-34.731 9.311 50.497-87.486 16.166 4.349zm253.651 77.957-34.729-9.311c-4.527-.769-7.589.999-9.187 5.304l-9.304 34.737-46.859-81.163 17.016-16.981 20.777 35.985c6.295 9.933 18.494 2.031 12.99-7.5l-22.778-39.451 4.567-4.558 17.006-4.537z"/><path d="m319.781 187.131c-1.559-4.797-5.627-8.228-10.62-8.954l-28.572-4.152-12.778-25.891c-2.232-4.523-6.752-7.333-11.796-7.333s-9.564 2.81-11.796 7.333l-12.778 25.891-28.573 4.152c-4.992.726-9.061 4.156-10.619 8.954-1.558 4.797-.282 9.963 3.329 13.484l20.675 20.153-4.881 28.458c-.853 4.971 1.153 9.901 5.234 12.866 4.521 2.992 9.139 3.326 13.853 1.001l25.556-13.436 25.556 13.435c4.464 2.347 9.772 1.963 13.853-1 4.081-2.964 6.086-7.895 5.234-12.867l-4.881-28.457 20.675-20.153c3.611-3.52 4.887-8.687 3.329-13.484zm-37.298 25.649c-1.768 1.723-2.574 4.206-2.157 6.639l4.916 28.657-25.736-13.53c-2.327-1.148-4.654-1.148-6.98 0l-25.736 13.53 4.916-28.657c.417-2.433-.389-4.916-2.157-6.639l-20.821-20.296 28.774-4.181c2.443-.355 4.554-1.889 5.647-4.103l12.868-26.074 12.868 26.074c1.093 2.213 3.204 3.748 5.647 4.103l28.774 4.181z"/></g></svg>