<svg id="visual" viewBox="0 0 900 600" width="900" height="600" xmlns="http://www.w3.org/2000/svg" xmlns:xlink="http://www.w3.org/1999/xlink" version="1.1"><path d="M0 276L21.5 252.8C43 229.7 86 183.3 128.8 177.7C171.7 172 214.3 207 257.2 213.2C300 219.3 343 196.7 385.8 179.8C428.7 163 471.3 152 514.2 147.2C557 142.3 600 143.7 642.8 162.8C685.7 182 728.3 219 771.2 239C814 259 857 262 878.5 263.5L900 265L900 601L878.5 601C857 601 814 601 771.2 601C728.3 601 685.7 601 642.8 601C600 601 557 601 514.2 601C471.3 601 428.7 601 385.8 601C343 601 300 601 257.2 601C214.3 601 171.7 601 128.8 601C86 601 43 601 21.5 601L0 601Z" fill="#fa7268"></path><path d="M0 204L21.5 201.3C43 198.7 86 193.3 128.8 206.8C171.7 220.3 214.3 252.7 257.2 250.8C300 249 343 213 385.8 221.2C428.7 229.3 471.3 281.7 514.2 281.7C557 281.7 600 229.3 642.8 219.2C685.7 209 728.3 241 771.2 241.8C814 242.7 857 212.3 878.5 197.2L900 182L900 601L878.5 601C857 601 814 601 771.2 601C728.3 601 685.7 601 642.8 601C600 601 557 601 514.2 601C471.3 601 428.7 601 385.8 601C343 601 300 601 257.2 601C214.3 601 171.7 601 128.8 601C86 601 43 601 21.5 601L0 601Z" fill="#ef5f67"></path><path d="M0 365L21.5 363.5C43 362 86 359 128.8 356C171.7 353 214.3 350 257.2 362.8C300 375.7 343 404.3 385.8 398C428.7 391.7 471.3 350.3 514.2 338.7C557 327 600 345 642.8 340.3C685.7 335.7 728.3 308.3 771.2 301.5C814 294.7 857 308.3 878.5 315.2L900 322L900 601L878.5 601C857 601 814 601 771.2 601C728.3 601 685.7 601 642.8 601C600 601 557 601 514.2 601C471.3 601 428.7 601 385.8 601C343 601 300 601 257.2 601C214.3 601 171.7 601 128.8 601C86 601 43 601 21.5 601L0 601Z" fill="#e34c67"></path><path d="M0 386L21.5 399.5C43 413 86 440 128.8 454.8C171.7 469.7 214.3 472.3 257.2 460.5C300 448.7 343 422.3 385.8 412.8C428.7 403.3 471.3 410.7 514.2 403.3C557 396 600 374 642.8 382C685.7 390 728.3 428 771.2 452.2C814 476.3 857 486.7 878.5 491.8L900 497L900 601L878.5 601C857 601 814 601 771.2 601C728.3 601 685.7 601 642.8 601C600 601 557 601 514.2 601C471.3 601 428.7 601 385.8 601C343 601 300 601 257.2 601C214.3 601 171.7 601 128.8 601C86 601 43 601 21.5 601L0 601Z" fill="#d53867"></path><path d="M0 454L21.5 454C43 454 86 454 128.8 458.7C171.7 463.3 214.3 472.7 257.2 483.8C300 495 343 508 385.8 513.2C428.7 518.3 471.3 515.7 514.2 510.8C557 506 600 499 642.8 495.2C685.7 491.3 728.3 490.7 771.2 496.2C814 501.7 857 513.3 878.5 519.2L900 525L900 601L878.5 601C857 601 814 601 771.2 601C728.3 601 685.7 601 642.8 601C600 601 557 601 514.2 601C471.3 601 428.7 601 385.8 601C343 601 300 601 257.2 601C214.3 601 171.7 601 128.8 601C86 601 43 601 21.5 601L0 601Z" fill="#c62368"></path></svg>